<svg xmlns="http://www.w3.org/2000/svg" viewBox="0 0 417.659 111">
    <title>Slogans</title>
    <g id="Pass">
        <path d="M145.68,50.08a6.356,6.356,0,0,0-5.4,4.681c-.664,3.046-.036,5.678,2.516,7.68a5.3,5.3,0,0,0,7.452-1.313c2.7-3.691,1.338-8.9-2.409-10.573a10.726,10.726,0,0,0-2.042-.475"
              transform="translate(-36.1 -49.22)"
              style="fill:none;stroke:#000;stroke-linecap:round;stroke-linejoin:round"/>
        <path d="M61.44,56.8c1.92,0,3.842.061,5.759-.015,2.67-.106,4-2.323,3.494-4.069a3.41,3.41,0,0,0-3.015-2.5,50.7,50.7,0,0,0-5.757-.152c-.3-.014-.378.35-.731.231.091,2.166.049,4.306.073,6.447.021,1.892-.015,3.8-.052,5.7-.008.4-.145.821.109,1.2"
              transform="translate(-36.1 -49.22)"
              style="fill:none;stroke:#000;stroke-linecap:round;stroke-linejoin:round"/>
        <path d="M112.56,63.52a4.655,4.655,0,0,0,.6-9.129A4.059,4.059,0,0,0,108.6,57.4a4.547,4.547,0,0,0,3.84,6.12"
              transform="translate(-36.1 -49.22)"
              style="fill:none;stroke:#000;stroke-linecap:round;stroke-linejoin:round"/>
        <path d="M101.16,56.2c-1.41-2.241-4.208-2.591-5.76-.72a1.562,1.562,0,0,0,.473,2.411,13.177,13.177,0,0,0,3.011,1.178c.579.206,1.121.479,1.678.728a1.607,1.607,0,0,1,.249,2.776c-1.833,1.617-5.131,1.062-6.131-1.093"
              transform="translate(-36.1 -49.22)"
              style="fill:none;stroke:#000;stroke-linecap:round;stroke-linejoin:round"/>
        <path d="M241.92,52.6c-2.392-2.9-6.317-3.36-8.61-.813a7.086,7.086,0,0,0-.835,8.951c1.925,3.107,5.74,3.722,8.723,1.1.3-.26.562-.557.842-.837"
              transform="translate(-36.1 -49.22)"
              style="fill:none;stroke:#000;stroke-linecap:round;stroke-linejoin:round"/>
        <path d="M81.36,56.44c-.9-.611-1.523-1.57-2.635-1.934a4.218,4.218,0,0,0-5.14,2.664A4.993,4.993,0,0,0,75.6,62.914a3.639,3.639,0,0,0,4.664-.609c.407-.359.7-.85,1.165-1.2a10.515,10.515,0,0,0-.012-4.546"
              transform="translate(-36.1 -49.22)"
              style="fill:none;stroke:#000;stroke-linecap:round;stroke-linejoin:round"/>
        <path d="M263.64,56.44c-.591-.06-.727-.636-1.072-.969a3.784,3.784,0,0,0-4.077-.92,4.1,4.1,0,0,0-2.752,3.332c-.51,3.08,1.422,5.386,3.7,5.537a4.1,4.1,0,0,0,2.875-.868,14.742,14.742,0,0,1,1.326-1.192"
              transform="translate(-36.1 -49.22)"
              style="fill:none;stroke:#000;stroke-linecap:round;stroke-linejoin:round"/>
        <path d="M291,56.56a4.668,4.668,0,0,1-1.193-1.086,3.752,3.752,0,0,0-5.386-.093,4.811,4.811,0,0,0,.7,7.534,3.871,3.871,0,0,0,5.144-1.085,1.318,1.318,0,0,1,.733-.59"
              transform="translate(-36.1 -49.22)"
              style="fill:none;stroke:#000;stroke-linecap:round;stroke-linejoin:round"/>
        <path d="M92.04,56.32c-.147-.138-.39-.011-.5-.353-.582-1.764-3.508-2.087-5.021-1.094a1.919,1.919,0,0,0-.969,1.807c.027.917.694,1.262,1.341,1.541a23.446,23.446,0,0,0,3.36,1.188,3.159,3.159,0,0,1,1.3.766,1.41,1.41,0,0,1-.105,2.267c-1.542,1.4-5.127,1.629-6.362-.962"
              transform="translate(-36.1 -49.22)"
              style="fill:none;stroke:#000;stroke-linecap:round;stroke-linejoin:round"/>
        <path d="M279.48,63.64a20.833,20.833,0,0,0-.253-6.957,3.351,3.351,0,0,0-5.509-1.445c-.319.3-.548.737-1.078.722"
              transform="translate(-36.1 -49.22)"
              style="fill:none;stroke:#000;stroke-linecap:round;stroke-linejoin:round"/>
        <path d="M218.88,63.88c0-1.88.025-3.76-.007-5.64a3.753,3.753,0,0,0-2.4-3.7,3.226,3.226,0,0,0-3.836,1.055,3.024,3.024,0,0,1-.476.364"
              transform="translate(-36.1 -49.22)"
              style="fill:none;stroke:#000;stroke-linecap:round;stroke-linejoin:round"/>
        <path d="M127.2,63.88c0-1.88.025-3.76-.007-5.64a3.753,3.753,0,0,0-2.4-3.7,3.226,3.226,0,0,0-3.836,1.055,3.024,3.024,0,0,1-.476.364"
              transform="translate(-36.1 -49.22)"
              style="fill:none;stroke:#000;stroke-linecap:round;stroke-linejoin:round"/>
        <path d="M207.24,49.96a30.411,30.411,0,0,0-.105,5.04c.019,2.88-.165,5.763.105,8.64"
              transform="translate(-36.1 -49.22)"
              style="fill:none;stroke:#000;stroke-linecap:round;stroke-linejoin:round"/>
        <path d="M191.76,51.76q0,4.14,0,8.28c0,3.182.885,3.065,2.881,3.48" transform="translate(-36.1 -49.22)"
              style="fill:none;stroke:#000;stroke-linecap:round;stroke-linejoin:round"/>
        <path d="M268.2,54.28v9.36" transform="translate(-36.1 -49.22)"
              style="fill:none;stroke:#000;stroke-linecap:round;stroke-linejoin:round"/>
        <path d="M159,50.2c-1.83.068-2.977,1.323-2.994,3.36-.024,2.96,0,5.92-.015,8.88,0,.4.143.821-.111,1.2"
              transform="translate(-36.1 -49.22)"
              style="fill:none;stroke:#000;stroke-linecap:round;stroke-linejoin:round"/>
        <path d="M104.88,54.4c.075,3.08-.153,6.163.12,9.24" transform="translate(-36.1 -49.22)"
              style="fill:none;stroke:#000;stroke-linecap:round;stroke-linejoin:round"/>
        <path d="M42.84,50.92c-1.241,1.668-1.768,3.677-2.625,5.527-1.024,2.21-1.923,4.478-2.912,6.7-.1.23-.218.7-.7.488"
              transform="translate(-36.1 -49.22)"
              style="fill:none;stroke:#000;stroke-linecap:round;stroke-linejoin:round"/>
        <path d="M175.44,49.72c-.2,1.434.967,2.36,1.369,3.584.736,2.245,1.94,4.307,2.7,6.578a19.917,19.917,0,0,0,1.8,3.643c.152.253.339.031.488.115"
              transform="translate(-36.1 -49.22)"
              style="fill:none;stroke:#000;stroke-linecap:round;stroke-linejoin:round"/>
        <path d="M175.32,50.92c-1.241,1.668-1.768,3.677-2.625,5.527-1.024,2.21-1.923,4.478-2.912,6.7-.1.23-.218.7-.7.488"
              transform="translate(-36.1 -49.22)"
              style="fill:none;stroke:#000;stroke-linecap:round;stroke-linejoin:round"/>
        <path d="M42.96,49.72c-.2,1.434.967,2.36,1.369,3.584.736,2.245,1.94,4.307,2.7,6.578a19.917,19.917,0,0,0,1.8,3.643c.152.253.339.031.488.115"
              transform="translate(-36.1 -49.22)"
              style="fill:none;stroke:#000;stroke-linecap:round;stroke-linejoin:round"/>
        <path d="M39,60.04a52.874,52.874,0,0,0,7.92,0" transform="translate(-36.1 -49.22)"
              style="fill:none;stroke:#000;stroke-linecap:round;stroke-linejoin:round"/>
        <path d="M171.48,60.04a52.874,52.874,0,0,0,7.92,0" transform="translate(-36.1 -49.22)"
              style="fill:none;stroke:#000;stroke-linecap:round;stroke-linejoin:round"/>
        <path d="M211.8,54.28v9.36" transform="translate(-36.1 -49.22)"
              style="fill:none;stroke:#000;stroke-linecap:round;stroke-linejoin:round"/>
        <path d="M120.12,54.28v9.36" transform="translate(-36.1 -49.22)"
              style="fill:none;stroke:#000;stroke-linecap:round;stroke-linejoin:round"/>
        <path d="M272.4,54.4c.242,3.077-.258,6.164.12,9.24" transform="translate(-36.1 -49.22)"
              style="fill:none;stroke:#000;stroke-linecap:round;stroke-linejoin:round"/>
        <path d="M184.32,54.4c0,2.76.006,5.52-.008,8.28,0,.317.142.667-.112.96" transform="translate(-36.1 -49.22)"
              style="fill:none;stroke:#000;stroke-linecap:round;stroke-linejoin:round"/>
        <path d="M291.36,54.4c-.381,2.189.263,4.407-.2,6.608-.116.543.174,1.154.117,1.795-.254,2.827-1.212,4-3.933,4.557"
              transform="translate(-36.1 -49.22)"
              style="fill:none;stroke:#000;stroke-linecap:round;stroke-linejoin:round"/>
        <path d="M264,49.84V63.88" transform="translate(-36.1 -49.22)"
              style="fill:none;stroke:#000;stroke-linecap:round;stroke-linejoin:round"/>
        <path d="M188.76,54.28a5.791,5.791,0,0,0-4.08,1.8" transform="translate(-36.1 -49.22)"
              style="fill:none;stroke:#000;stroke-linecap:round;stroke-linejoin:round"/>
        <path d="M194.76,54.28h-4.8" transform="translate(-36.1 -49.22)"
              style="fill:none;stroke:#000;stroke-linecap:round;stroke-linejoin:round"/>
        <path d="M159,54.28h-4.8" transform="translate(-36.1 -49.22)"
              style="fill:none;stroke:#000;stroke-linecap:round;stroke-linejoin:round"/>
        <path d="M81.48,61.36c.476.718.136,1.523.24,2.28" transform="translate(-36.1 -49.22)"
              style="fill:none;stroke:#000;stroke-linecap:round;stroke-linejoin:round"/>
        <path d="M81.72,54.28c-.095.678.223,1.405-.24,2.04" transform="translate(-36.1 -49.22)"
              style="fill:none;stroke:#000;stroke-linecap:round;stroke-linejoin:round"/>
        <path d="M248.64,54.28a4.6,4.6,0,0,0-3.241,6.961c1.025,1.753,3,2.692,4.561,2.159a5.114,5.114,0,0,0,3.12-4.68c-.266-2.957-2.181-4.381-4.32-4.44"
              transform="translate(-36.1 -49.22)"
              style="fill:none;stroke:#000;stroke-linecap:round;stroke-linejoin:round"/>
    </g>
    <g id="Inn">
        <path d="M117.36,159.36c2.192-.394,3.629-1.648,3.946-3.6a4.572,4.572,0,0,0-1.909-4.913c-2.562-1.727-5.74,0-6.226,3a4.509,4.509,0,0,0,4.069,5.518"
              transform="translate(-36.1 -49.22)"
              style="fill:none;stroke:#000;stroke-linecap:round;stroke-linejoin:round"/>
        <path d="M74.16,159.36a4.344,4.344,0,0,0,3.94-3.725,5.214,5.214,0,0,0-2.14-5.035,4.212,4.212,0,0,0-4.316.365,4.54,4.54,0,0,0-1.777,4.432,4.379,4.379,0,0,0,2.858,3.711,6.9,6.9,0,0,0,1.315.252"
              transform="translate(-36.1 -49.22)"
              style="fill:none;stroke:#000;stroke-linecap:round;stroke-linejoin:round"/>
        <path d="M244.2,152.04c-1.41-2.241-4.208-2.591-5.76-.72a1.489,1.489,0,0,0,.488,2.384c.964.474,1.994.811,2.991,1.218.564.23,1.122.476,1.681.718a1.6,1.6,0,0,1,.251,2.773c-1.833,1.617-5.131,1.062-6.131-1.093"
              transform="translate(-36.1 -49.22)"
              style="fill:none;stroke:#000;stroke-linecap:round;stroke-linejoin:round"/>
        <path d="M176.88,154.8H184.9a4.131,4.131,0,0,0-4.064-4.654c-2.388-.045-4.175,2.492-4.113,4.657.085,2.951,2.711,5.41,5.784,4.175A8.932,8.932,0,0,0,184.2,157.8"
              transform="translate(-36.1 -49.22)"
              style="fill:none;stroke:#000;stroke-linecap:round;stroke-linejoin:round"/>
        <path d="M156,154.8h7.966a4.148,4.148,0,0,0-2.1-4.06,3.488,3.488,0,0,0-3.95-.023,4.262,4.262,0,0,0-2.108,3.841,4.387,4.387,0,0,0,2.116,4.193c1.475.964,3.564.813,5.385-.942l-.231-.489"
              transform="translate(-36.1 -49.22)"
              style="fill:none;stroke:#000;stroke-linecap:round;stroke-linejoin:round"/>
        <path d="M204,154.8h7.966a4.148,4.148,0,0,0-2.1-4.06,3.488,3.488,0,0,0-3.95-.023,4.262,4.262,0,0,0-2.108,3.841,4.387,4.387,0,0,0,2.116,4.193c1.475.964,3.564.813,5.385-.942l-.231-.489"
              transform="translate(-36.1 -49.22)"
              style="fill:none;stroke:#000;stroke-linecap:round;stroke-linejoin:round"/>
        <path d="M233.88,152.16c-.56-.44-1.1-.914-1.684-1.314-2.581-1.756-5.536.039-6.148,2.987-.569,2.744,1.536,5.911,4.708,5.382a5.43,5.43,0,0,0,1.795-.829,12.212,12.212,0,0,0,1.329-1.066"
              transform="translate(-36.1 -49.22)"
              style="fill:none;stroke:#000;stroke-linecap:round;stroke-linejoin:round"/>
        <path d="M98.76,152.16c-.56-.44-1.1-.914-1.684-1.314-2.581-1.756-5.536.039-6.148,2.987-.569,2.744,1.536,5.911,4.708,5.382a5.43,5.43,0,0,0,1.8-.829,12.212,12.212,0,0,0,1.329-1.066"
              transform="translate(-36.1 -49.22)"
              style="fill:none;stroke:#000;stroke-linecap:round;stroke-linejoin:round"/>
        <path d="M152.28,159.48c0-1.8.02-3.6,0-5.4a3.76,3.76,0,0,0-2.874-3.845,3.431,3.431,0,0,0-3,.846c-.326.232-.641.479-.961.719"
              transform="translate(-36.1 -49.22)"
              style="fill:none;stroke:#000;stroke-linecap:round;stroke-linejoin:round"/>
        <path d="M222.6,159.48q-.06-2.76-.121-5.52a3.6,3.6,0,0,0-3-3.735,3.715,3.715,0,0,0-2.639.622,12.49,12.49,0,0,0-1.084.713"
              transform="translate(-36.1 -49.22)"
              style="fill:none;stroke:#000;stroke-linecap:round;stroke-linejoin:round"/>
        <path d="M55.08,159.48a58.581,58.581,0,0,0-.3-6.95c-.332-2.135-3.44-3.32-5.464-1.457a8.427,8.427,0,0,1-1.074.727"
              transform="translate(-36.1 -49.22)"
              style="fill:none;stroke:#000;stroke-linecap:round;stroke-linejoin:round"/>
        <path d="M66.36,159.48a58.581,58.581,0,0,0-.3-6.95c-.332-2.135-3.44-3.32-5.464-1.457a8.427,8.427,0,0,1-1.074.727"
              transform="translate(-36.1 -49.22)"
              style="fill:none;stroke:#000;stroke-linecap:round;stroke-linejoin:round"/>
        <path d="M131.88,159.48a58.581,58.581,0,0,0-.3-6.95c-.332-2.135-3.44-3.32-5.464-1.457a8.427,8.427,0,0,1-1.074.727"
              transform="translate(-36.1 -49.22)"
              style="fill:none;stroke:#000;stroke-linecap:round;stroke-linejoin:round"/>
        <path d="M43.32,145.8c.04,1.8.117,3.6.112,5.4-.008,2.76-.072,5.52-.112,8.28" transform="translate(-36.1 -49.22)"
              style="fill:none;stroke:#000;stroke-linecap:round;stroke-linejoin:round"/>
        <path d="M103.8,147.48c0,2.84.053,5.681-.016,8.52-.061,2.51.464,2.928,2.776,3.36"
              transform="translate(-36.1 -49.22)"
              style="fill:none;stroke:#000;stroke-linecap:round;stroke-linejoin:round"/>
        <path d="M109.68,150.24l.12,9.24" transform="translate(-36.1 -49.22)"
              style="fill:none;stroke:#000;stroke-linecap:round;stroke-linejoin:round"/>
        <path d="M88.68,150a3.733,3.733,0,0,0-.705.846c-.948,2.269-1.845,4.558-2.786,6.829a4.843,4.843,0,0,1-.649.905"
              transform="translate(-36.1 -49.22)"
              style="fill:none;stroke:#000;stroke-linecap:round;stroke-linejoin:round"/>
        <path d="M166.2,150c.24.24.587.437.7.727.911,2.268,1.762,4.559,2.672,6.827a4.952,4.952,0,0,0,.765,1.026"
              transform="translate(-36.1 -49.22)"
              style="fill:none;stroke:#000;stroke-linecap:round;stroke-linejoin:round"/>
        <path d="M174.12,150.12l-3.607,8.741-.158-.1.045.964" transform="translate(-36.1 -49.22)"
              style="fill:none;stroke:#000;stroke-linecap:round;stroke-linejoin:round"/>
        <path d="M80.76,150.12c1.04,2.52,2.094,5.035,3.111,7.564.263.654,1.058,1.165.609,2.036"
              transform="translate(-36.1 -49.22)"
              style="fill:none;stroke:#000;stroke-linecap:round;stroke-linejoin:round"/>
        <path d="M215.52,150.24l-.12,9.24" transform="translate(-36.1 -49.22)"
              style="fill:none;stroke:#000;stroke-linecap:round;stroke-linejoin:round"/>
        <path d="M145.2,150.24v9.48" transform="translate(-36.1 -49.22)"
              style="fill:none;stroke:#000;stroke-linecap:round;stroke-linejoin:round"/>
        <path d="M124.8,150.24l.12,9.24" transform="translate(-36.1 -49.22)"
              style="fill:none;stroke:#000;stroke-linecap:round;stroke-linejoin:round"/>
        <path d="M48,150.24l.12,9.24" transform="translate(-36.1 -49.22)"
              style="fill:none;stroke:#000;stroke-linecap:round;stroke-linejoin:round"/>
        <path d="M59.28,150.24l.12,9.24" transform="translate(-36.1 -49.22)"
              style="fill:none;stroke:#000;stroke-linecap:round;stroke-linejoin:round"/>
        <path d="M188.4,150.24v9.48" transform="translate(-36.1 -49.22)"
              style="fill:none;stroke:#000;stroke-linecap:round;stroke-linejoin:round"/>
        <path d="M234.24,145.68v14.04" transform="translate(-36.1 -49.22)"
              style="fill:none;stroke:#000;stroke-linecap:round;stroke-linejoin:round"/>
        <path d="M99.12,150.24v9.48" transform="translate(-36.1 -49.22)"
              style="fill:none;stroke:#000;stroke-linecap:round;stroke-linejoin:round"/>
        <path d="M192.84,150.12a4.129,4.129,0,0,0-3.494,1.55c-.143.192-.466.25-.706.37"
              transform="translate(-36.1 -49.22)"
              style="fill:none;stroke:#000;stroke-linecap:round;stroke-linejoin:round"/>
        <path d="M106.68,150.12h-4.56" transform="translate(-36.1 -49.22)"
              style="fill:none;stroke:#000;stroke-linecap:round;stroke-linejoin:round"/>
    </g>
    <g id="Adv">
        <path d="M409.8,104.76a5.516,5.516,0,0,0-8.271-.951,6.809,6.809,0,0,0-2.011,7.18c.731,2.5,2.356,4.374,5.125,4.659a5.636,5.636,0,0,0,5.277-2.488"
              transform="translate(-36.1 -49.22)"
              style="fill:none;stroke:#000;stroke-linecap:round;stroke-linejoin:round"/>
        <path d="M452.76,108.36c-.608-1.952-3.583-2.377-5.271-1.187-1.295.912-1.092,2.348.349,3.111a30.9,30.9,0,0,0,3.485,1.307,2.715,2.715,0,0,1,1.936,1.782c-.4,1.689-1.718,2.159-3.141,2.279a3.6,3.6,0,0,1-3.838-1.772"
              transform="translate(-36.1 -49.22)"
              style="fill:none;stroke:#000;stroke-linecap:round;stroke-linejoin:round"/>
        <path d="M140.04,106.44c0,1.96,0,3.92,0,5.88a3.608,3.608,0,0,0,7.2,0c0-1.96,0-3.92,0-5.88"
              transform="translate(-36.1 -49.22)"
              style="fill:none;stroke:#000;stroke-linecap:round;stroke-linejoin:round"/>
        <path d="M269.88,108.72c-.844-.782-1.532-1.767-2.759-2.043a4.285,4.285,0,0,0-5.16,3.723,4.8,4.8,0,0,0,1.565,4.313,3.919,3.919,0,0,0,5.268-.119c.417-.38.7-.9,1.279-1.172A11.3,11.3,0,0,0,270,108.84"
              transform="translate(-36.1 -49.22)"
              style="fill:none;stroke:#000;stroke-linecap:round;stroke-linejoin:round"/>
        <path d="M296.4,111.12h7.911a4.284,4.284,0,0,0-2.875-4.419c-2.147-.457-3.977.1-4.885,2.391-.928,2.34-.389,5.031,2.02,6.2a4.248,4.248,0,0,0,5.029-1.057"
              transform="translate(-36.1 -49.22)"
              style="fill:none;stroke:#000;stroke-linecap:round;stroke-linejoin:round"/>
        <path d="M243,115.8c-.341-2.311.241-4.654-.245-6.983-.912-.813-1.65-1.873-2.993-2.146a3.744,3.744,0,0,0-3.935,1.23,4.685,4.685,0,0,0-.876,4.9,3.993,3.993,0,0,0,3.013,2.735,3.569,3.569,0,0,0,4.087-1.652c.12-.206.389-.326.589-.486"
              transform="translate(-36.1 -49.22)"
              style="fill:none;stroke:#000;stroke-linecap:round;stroke-linejoin:round"/>
        <path d="M157.68,111.12h7.911a4.284,4.284,0,0,0-2.875-4.419c-2.147-.457-3.977.1-4.885,2.391-.928,2.34-.389,5.031,2.02,6.2a4.248,4.248,0,0,0,5.029-1.057"
              transform="translate(-36.1 -49.22)"
              style="fill:none;stroke:#000;stroke-linecap:round;stroke-linejoin:round"/>
        <path d="M111.36,111.12h7.911A4.284,4.284,0,0,0,116.4,106.7c-2.147-.457-3.977.1-4.885,2.391-.928,2.34-.389,5.031,2.02,6.2a4.248,4.248,0,0,0,5.029-1.057"
              transform="translate(-36.1 -49.22)"
              style="fill:none;stroke:#000;stroke-linecap:round;stroke-linejoin:round"/>
        <path d="M435.6,111.12h7.91a4.167,4.167,0,0,0-5.27-4.44c-1.933.7-3.048,2.819-2.757,5.28a4.066,4.066,0,0,0,3.72,3.693,3.845,3.845,0,0,0,3.6-1.413"
              transform="translate(-36.1 -49.22)"
              style="fill:none;stroke:#000;stroke-linecap:round;stroke-linejoin:round"/>
        <path d="M431.4,108.6a16.335,16.335,0,0,0-1.665-1.467,3.669,3.669,0,0,0-3.979.021,4.244,4.244,0,0,0-2.139,4.2c.176,2.954,2.555,4.751,5.022,4.2a3.62,3.62,0,0,0,2.293-1.549c.167-.246.319-.587.678-.608a9.367,9.367,0,0,0-.03-4.68"
              transform="translate(-36.1 -49.22)"
              style="fill:none;stroke:#000;stroke-linecap:round;stroke-linejoin:round"/>
        <path d="M97.08,108.6a16.335,16.335,0,0,0-1.665-1.467,3.669,3.669,0,0,0-3.979.021,4.244,4.244,0,0,0-2.139,4.2c.176,2.954,2.555,4.751,5.022,4.2a3.62,3.62,0,0,0,2.293-1.549c.167-.246.319-.587.679-.608a9.378,9.378,0,0,0-.031-4.68"
              transform="translate(-36.1 -49.22)"
              style="fill:none;stroke:#000;stroke-linecap:round;stroke-linejoin:round"/>
        <path d="M334.56,111.12h7.656c.6-1.491-.726-3.392-2.138-4.2a4.088,4.088,0,0,0-4.327.586c-2.639,2.182-1.8,7.02,1.213,7.917a3.925,3.925,0,0,0,4.193-.829c.273-.273.508-.587.963-.477"
              transform="translate(-36.1 -49.22)"
              style="fill:none;stroke:#000;stroke-linecap:round;stroke-linejoin:round"/>
        <path d="M362.88,107.88a3.974,3.974,0,0,0-4.552-1.057A4.18,4.18,0,0,0,355.6,111a4.443,4.443,0,0,0,2.478,4.318,4.188,4.188,0,0,0,4.8-1.079"
              transform="translate(-36.1 -49.22)"
              style="fill:none;stroke:#000;stroke-linecap:round;stroke-linejoin:round"/>
        <path d="M313.56,108.36a3.558,3.558,0,0,0-5.392-1.07c-1.445,1.145-.886,2.352.348,3,1.155.605,2.423.9,3.621,1.392.935.383,1.793.742,1.753,1.839s-.917,1.645-1.893,1.911c-1.732.474-4.163.3-4.917-1.55"
              transform="translate(-36.1 -49.22)"
              style="fill:none;stroke:#000;stroke-linecap:round;stroke-linejoin:round"/>
        <path d="M216.84,102.36h-7.92V115.8" transform="translate(-36.1 -49.22)"
              style="fill:none;stroke:#000;stroke-linecap:round;stroke-linejoin:round"/>
        <path d="M63.48,115.8c0-1.68.011-3.36,0-5.04a3.977,3.977,0,0,0-3.238-4.2,3.221,3.221,0,0,0-2.64.834c-.332.224-.426.765-1,.718-.556,2.54-.226,5.122-.314,7.683"
              transform="translate(-36.1 -49.22)"
              style="fill:none;stroke:#000;stroke-linecap:round;stroke-linejoin:round"/>
        <path d="M129.96,115.8c0-1.68.011-3.36,0-5.04a3.977,3.977,0,0,0-3.238-4.2,3.221,3.221,0,0,0-2.64.834c-.332.224-.426.765-1,.718-.556,2.54-.226,5.122-.314,7.683"
              transform="translate(-36.1 -49.22)"
              style="fill:none;stroke:#000;stroke-linecap:round;stroke-linejoin:round"/>
        <path d="M258.6,115.8c0-1.68.011-3.36,0-5.04a3.977,3.977,0,0,0-3.238-4.2,3.221,3.221,0,0,0-2.64.834c-.332.224-.426.765-1,.718-.556,2.54-.226,5.122-.314,7.683"
              transform="translate(-36.1 -49.22)"
              style="fill:none;stroke:#000;stroke-linecap:round;stroke-linejoin:round"/>
        <path d="M231.24,115.8c0-1.8-.009-3.6,0-5.4a3.651,3.651,0,0,0-4.447-3.743,3.7,3.7,0,0,0-1.31.75c-.358.244-.555.728-1.085.713"
              transform="translate(-36.1 -49.22)"
              style="fill:none;stroke:#000;stroke-linecap:round;stroke-linejoin:round"/>
        <path d="M330.72,115.68c-.058-1.92.058-3.839-.1-5.762a3.363,3.363,0,0,0-2.059-3.006,3.21,3.21,0,0,0-3.482.371c-.372.262-.722.557-1.082.837"
              transform="translate(-36.1 -49.22)"
              style="fill:none;stroke:#000;stroke-linecap:round;stroke-linejoin:round"/>
        <path d="M386.88,115.68c-.058-1.92.058-3.839-.1-5.762a3.363,3.363,0,0,0-2.059-3.006,3.21,3.21,0,0,0-3.482.371c-.372.262-.722.557-1.082.837"
              transform="translate(-36.1 -49.22)"
              style="fill:none;stroke:#000;stroke-linecap:round;stroke-linejoin:round"/>
        <path d="M317.76,103.92c0,2.84.05,5.681-.015,8.52-.054,2.333.739,3.147,2.895,3.24"
              transform="translate(-36.1 -49.22)"
              style="fill:none;stroke:#000;stroke-linecap:round;stroke-linejoin:round"/>
        <path d="M346.32,103.92c0,2.84.05,5.681-.015,8.52-.054,2.333.739,3.147,2.895,3.24"
              transform="translate(-36.1 -49.22)"
              style="fill:none;stroke:#000;stroke-linecap:round;stroke-linejoin:round"/>
        <path d="M134.64,106.68c-.111,2.776-.435,5.564.248,8.146a5.557,5.557,0,0,0,2.392.854"
              transform="translate(-36.1 -49.22)"
              style="fill:none;stroke:#000;stroke-linecap:round;stroke-linejoin:round"/>
        <path d="M81.36,103.08c.829.586.92,1.591,1.3,2.411,1.569,3.417,2.916,6.934,4.584,10.309"
              transform="translate(-36.1 -49.22)"
              style="fill:none;stroke:#000;stroke-linecap:round;stroke-linejoin:round"/>
        <path d="M288.12,102.36c.88,2,1.8,3.983,2.629,6,.937,2.29,2.045,4.506,2.918,6.825.1.259.174.769.693.73"
              transform="translate(-36.1 -49.22)"
              style="fill:none;stroke:#000;stroke-linecap:round;stroke-linejoin:round"/>
        <path d="M219.96,106.44v9.36" transform="translate(-36.1 -49.22)"
              style="fill:none;stroke:#000;stroke-linecap:round;stroke-linejoin:round"/>
        <path d="M288,102.96a63.477,63.477,0,0,0-2.983,6.488c-.915,1.983-1.732,4.012-2.629,6.005a.774.774,0,0,1-.508.467"
              transform="translate(-36.1 -49.22)"
              style="fill:none;stroke:#000;stroke-linecap:round;stroke-linejoin:round"/>
        <path d="M375.48,106.44v9.36" transform="translate(-36.1 -49.22)"
              style="fill:none;stroke:#000;stroke-linecap:round;stroke-linejoin:round"/>
        <path d="M352.2,106.44v9.36" transform="translate(-36.1 -49.22)"
              style="fill:none;stroke:#000;stroke-linecap:round;stroke-linejoin:round"/>
        <path d="M247.2,106.56v9.12" transform="translate(-36.1 -49.22)"
              style="fill:none;stroke:#000;stroke-linecap:round;stroke-linejoin:round"/>
        <path d="M193.68,106.68a25.618,25.618,0,0,0-.112,4.2c-.034,1.639-.008,3.28-.008,4.92"
              transform="translate(-36.1 -49.22)"
              style="fill:none;stroke:#000;stroke-linecap:round;stroke-linejoin:round"/>
        <path d="M47.52,102.12c-.18.666.371,1.049.581,1.568,1.125,2.775,2.485,5.448,3.519,8.265.485,1.322,1.18,2.567,1.78,3.847"
              transform="translate(-36.1 -49.22)"
              style="fill:none;stroke:#000;stroke-linecap:round;stroke-linejoin:round"/>
        <path d="M47.4,103.08c-1.215,1.68-1.771,3.678-2.609,5.534-1.075,2.382-2.081,4.8-3.151,7.186"
              transform="translate(-36.1 -49.22)"
              style="fill:none;stroke:#000;stroke-linecap:round;stroke-linejoin:round"/>
        <path d="M81.24,102.36c.131,1.081-.751,1.749-1.117,2.625-.931,2.227-1.808,4.485-2.954,6.62-.067.124-.009.315-.009.695a51.812,51.812,0,0,0,8.16.02"
              transform="translate(-36.1 -49.22)"
              style="fill:none;stroke:#000;stroke-linecap:round;stroke-linejoin:round"/>
        <path d="M100.92,106.44c1.165,2.428,2.12,4.943,3.114,7.443.285.717.912,1.3.846,2.157"
              transform="translate(-36.1 -49.22)"
              style="fill:none;stroke:#000;stroke-linecap:round;stroke-linejoin:round"/>
        <path d="M108.6,106.44q-1.68,4.08-3.366,8.158a2.506,2.506,0,0,1-.354.482" transform="translate(-36.1 -49.22)"
              style="fill:none;stroke:#000;stroke-linecap:round;stroke-linejoin:round"/>
        <path d="M284.04,112.32a56.123,56.123,0,0,0,8.16,0" transform="translate(-36.1 -49.22)"
              style="fill:none;stroke:#000;stroke-linecap:round;stroke-linejoin:round"/>
        <path d="M43.56,112.32a52.874,52.874,0,0,0,7.92,0" transform="translate(-36.1 -49.22)"
              style="fill:none;stroke:#000;stroke-linecap:round;stroke-linejoin:round"/>
        <path d="M270,113.64c1.223,2.19-.713,5.432-2.883,5.742a5.917,5.917,0,0,1-1.077.258"
              transform="translate(-36.1 -49.22)"
              style="fill:none;stroke:#000;stroke-linecap:round;stroke-linejoin:round"/>
        <path d="M379.8,106.44v9.36" transform="translate(-36.1 -49.22)"
              style="fill:none;stroke:#000;stroke-linecap:round;stroke-linejoin:round"/>
        <path d="M323.64,103.32V115.8" transform="translate(-36.1 -49.22)"
              style="fill:none;stroke:#000;stroke-linecap:round;stroke-linejoin:round"/>
        <path d="M224.16,106.56v9.12" transform="translate(-36.1 -49.22)"
              style="fill:none;stroke:#000;stroke-linecap:round;stroke-linejoin:round"/>
        <path d="M155.4,106.44a5.638,5.638,0,0,0-4.1,2.277c-.436,2.186-.13,4.642-.216,7.083"
              transform="translate(-36.1 -49.22)"
              style="fill:none;stroke:#000;stroke-linecap:round;stroke-linejoin:round"/>
        <path d="M243,101.88q0,2.7,0,5.4c0,.47.1.973-.359,1.32" transform="translate(-36.1 -49.22)"
              style="fill:none;stroke:#000;stroke-linecap:round;stroke-linejoin:round"/>
        <path d="M431.88,101.88q0,2.7,0,5.4c0,.47.1.973-.359,1.32" transform="translate(-36.1 -49.22)"
              style="fill:none;stroke:#000;stroke-linecap:round;stroke-linejoin:round"/>
        <path d="M97.56,101.88q0,2.7,0,5.4c0,.47.1.973-.359,1.32" transform="translate(-36.1 -49.22)"
              style="fill:none;stroke:#000;stroke-linecap:round;stroke-linejoin:round"/>
        <path d="M209.28,108.96a49.391,49.391,0,0,0,5.4.12" transform="translate(-36.1 -49.22)"
              style="fill:none;stroke:#000;stroke-linecap:round;stroke-linejoin:round"/>
        <path d="M196.44,102.36c-1.542-.089-2.135,1.093-2.581,2.184a3.469,3.469,0,0,0-.3,1.9"
              transform="translate(-36.1 -49.22)"
              style="fill:none;stroke:#000;stroke-linecap:round;stroke-linejoin:round"/>
        <path d="M77.04,112.44a11.229,11.229,0,0,0-1.309,2.646c-.179.356-.21.8-.731.834"
              transform="translate(-36.1 -49.22)"
              style="fill:none;stroke:#000;stroke-linecap:round;stroke-linejoin:round"/>
        <path d="M349.32,106.44h-4.8" transform="translate(-36.1 -49.22)"
              style="fill:none;stroke:#000;stroke-linecap:round;stroke-linejoin:round"/>
        <path d="M320.76,106.44h-4.8" transform="translate(-36.1 -49.22)"
              style="fill:none;stroke:#000;stroke-linecap:round;stroke-linejoin:round"/>
        <path d="M196.44,106.44h-4.56" transform="translate(-36.1 -49.22)"
              style="fill:none;stroke:#000;stroke-linecap:round;stroke-linejoin:round"/>
        <path d="M137.4,106.44h-4.56" transform="translate(-36.1 -49.22)"
              style="fill:none;stroke:#000;stroke-linecap:round;stroke-linejoin:round"/>
        <path d="M134.52,103.8v2.64" transform="translate(-36.1 -49.22)"
              style="fill:none;stroke:#000;stroke-linecap:round;stroke-linejoin:round"/>
        <path d="M270.36,106.44c-.054.77.2,1.589-.36,2.28" transform="translate(-36.1 -49.22)"
              style="fill:none;stroke:#000;stroke-linecap:round;stroke-linejoin:round"/>
        <path d="M97.32,113.52c.476.718.136,1.523.24,2.28" transform="translate(-36.1 -49.22)"
              style="fill:none;stroke:#000;stroke-linecap:round;stroke-linejoin:round"/>
        <path d="M431.64,113.52c.476.718.136,1.523.24,2.28" transform="translate(-36.1 -49.22)"
              style="fill:none;stroke:#000;stroke-linecap:round;stroke-linejoin:round"/>
        <path d="M151.08,106.44c.073.6-.188,1.246.24,1.8" transform="translate(-36.1 -49.22)"
              style="fill:none;stroke:#000;stroke-linecap:round;stroke-linejoin:round"/>
        <path d="M182.64,102.36a6.368,6.368,0,0,0-4.777,5.165A6.808,6.808,0,0,0,180,114.246a4.893,4.893,0,0,0,5.4,1.052,5.951,5.951,0,0,0,3.835-5.14,6.918,6.918,0,0,0-.937-4.924,5.753,5.753,0,0,0-5.53-2.874"
              transform="translate(-36.1 -49.22)"
              style="fill:none;stroke:#000;stroke-linecap:round;stroke-linejoin:round"/>
        <path d="M416.52,106.56c-2.549.41-3.335,1.928-3.82,4.085-.352,1.563.809,3.619,2.379,4.557a3.892,3.892,0,0,0,4.3-.384,4.827,4.827,0,0,0-.709-7.882,3.856,3.856,0,0,0-2.03-.376"
              transform="translate(-36.1 -49.22)"
              style="fill:none;stroke:#000;stroke-linecap:round;stroke-linejoin:round"/>
    </g>
</svg>